USFL
nRows=205
nColumns=2
inDegrees=yes
endheader
time	med_gas_r	
4.18723	 35.941349	
4.24973	 35.956397	
4.31222	 35.984551	
4.37472	 35.975746	
4.43722	 35.957816	
4.49971	 35.965003	
4.56221	 35.945914	
4.6247	 35.964358	
4.6872	 35.952655	
4.7497	 35.957716	
4.81219	 35.995549	
4.87469	 36.020392	
4.93718	 35.998031	
4.99968	 35.906662	
5.06218	 35.841825	
5.12467	 35.842338	
5.18717	 35.896602	
5.24966	 35.916373	
5.31216	 35.945407	
5.37466	 35.863974	
5.43715	 35.871155	
5.49965	 35.951281	
5.56214	 31.809838	
5.62464	 31.891934	
5.68714	 32.007251	
5.74963	 32.165598	
5.81213	 32.250830	
5.87462	 32.257154	
5.93712	 32.261476	
5.99962	 32.257830	
6.06211	 32.226789	
6.12461	 32.272586	
6.1871	 32.338317	
6.2496	 32.254464	
6.3121	 32.293588	
6.37459	 32.324797	
6.43709	 32.315955	
6.49958	 32.223896	
6.56208	 32.227849	
6.62458	 32.245690	
6.68707	 32.349729	
6.74957	 32.310172	
6.81206	 32.384459	
6.87456	 32.485843	
6.93706	 32.522397	
6.99955	 32.612168	
7.06205	 32.613958	
7.12454	 32.590866	
7.18704	 32.563805	
7.24954	 32.458843	
7.31203	 32.462198	
7.37453	 32.431137	
7.43702	 32.229563	
7.49952	 32.004625	
7.56202	 27.557709	
7.62451	 27.276560	
7.68701	 26.967479	
7.7495	 26.875643	
7.812	 26.759312	
7.8745	 26.685389	
7.93699	 26.605399	
7.99949	 26.564977	
8.06198	 26.553805	
8.12448	 26.592202	
8.18698	 26.451140	
8.24947	 26.364641	
8.31197	 26.440122	
8.37446	 26.380436	
8.43696	 26.269326	
8.49946	 26.295436	
8.56195	 26.242377	
8.62445	 26.250516	
8.68694	 26.216013	
8.74944	 26.277197	
8.81194	 26.302767	
8.87443	 26.334363	
8.93693	 26.410549	
8.99942	 26.286635	
9.06192	 26.333869	
9.12442	 26.338959	
9.18691	 26.301553	
9.24941	 26.349186	
9.3119	 26.347025	
9.3744	 26.341063	
9.4369	 26.366893	
9.49939	 26.395803	
9.56189	 26.463945	
9.62438	 26.476194	
9.68688	 26.603906	
9.74938	 26.566959	
9.81187	 26.544240	
9.87437	 26.539210	
9.93686	 26.565879	
9.99936	 26.561913	
10.0619	 26.541094	
10.1244	 26.497410	
10.1868	 26.487694	
10.2493	 26.525016	
10.3118	 26.578362	
10.3743	 26.633440	
10.4368	 26.647277	
10.4993	 26.628040	
10.5618	 26.675860	
10.6243	 26.693703	
10.6868	 26.682608	
10.7493	 26.735635	
10.8118	 26.780002	
10.8743	 26.749249	
10.9368	 26.796379	
10.9993	 26.783100	
11.0618	 26.755112	
11.1243	 26.724693	
11.1868	 26.661634	
11.2493	 26.679039	
11.3118	 26.691356	
11.3743	 26.726756	
11.4368	 26.647157	
11.4993	 26.611891	
11.5618	 26.618480	
11.6243	 26.603738	
11.6868	 26.646490	
11.7492	 26.675212	
11.8117	 26.744524	
11.8742	 26.753378	
11.9367	 26.738339	
11.9992	 26.822951	
12.0617	 26.815112	
12.1242	 26.800948	
12.1867	 26.836672	
12.2492	 26.832008	
12.3117	 26.795715	
12.3742	 26.788958	
12.4367	 26.770443	
12.4992	 26.760539	
12.5617	 26.760406	
12.6242	 26.771897	
12.6867	 26.790071	
12.7492	 26.807762	
12.8117	 26.832124	
12.8742	 26.873584	
12.9367	 26.856746	
12.9992	 26.862161	
13.0617	 26.886145	
13.1242	 26.864587	
13.1867	 26.861604	
13.2492	 26.894707	
13.3116	 26.945293	
13.3741	 27.101631	
13.4366	 27.191239	
13.4991	 27.263709	
13.5616	 27.362332	
13.6241	 27.466864	
13.6866	 27.501547	
13.7491	 27.627396	
13.8116	 27.679905	
13.8741	 27.730940	
13.9366	 27.820403	
13.9991	 27.855142	
14.0616	 27.882929	
14.1241	 27.980585	
14.1866	 28.019034	
14.2491	 28.031237	
14.3116	 28.073913	
14.3741	 28.065765	
14.4366	 28.028845	
14.4991	 28.113532	
14.5616	 28.187416	
14.6241	 28.198243	
14.6866	 28.255305	
14.7491	 28.309343	
14.8116	 28.319881	
14.874	 28.399242	
14.9365	 28.502942	
14.999	 28.524264	
15.0615	 30.643322	
15.124	 30.704964	
15.1865	 33.134060	
15.249	 33.196856	
15.3115	 33.216113	
15.374	 33.112186	
15.4365	 33.187953	
15.499	 33.232629	
15.5615	 35.037027	
15.624	 35.121997	
15.6865	 35.254415	
15.749	 35.334008	
15.8115	 35.345676	
15.874	 35.342761	
15.9365	 35.367994	
15.999	 35.509429	
16.0615	 35.545461	
16.124	 35.551343	
16.1865	 35.715911	
16.249	 35.819122	
16.3115	 35.885341	
16.374	 35.962051	
16.4364	 36.001272	
16.4989	 35.979185	
16.5614	 36.022306	
16.6239	 35.997738	
16.6864	 35.940776	
16.7489	 35.975662	
16.8114	 35.988296	
16.8739	 35.943193	
16.9364	 35.962112	
